<?xml version="1.0" encoding="UTF-8"?>
<svg width="245px" height="41px" viewBox="0 0 245 41" version="1.1" xmlns="http://www.w3.org/2000/svg" xmlns:xlink="http://www.w3.org/1999/xlink">
    <!-- Generator: Sketch 52.2 (67145) - http://www.bohemiancoding.com/sketch -->
    <title>Group 3</title>
    <desc>Created with Sketch.</desc>
    <defs>
        <path d="M62.5634766,29.7978516 C61.9892549,29.7978516 61.5039082,29.620119 61.1074219,29.2646484 C60.7109355,28.9091779 60.5126953,28.3964877 60.5126953,27.7265625 L60.5126953,11.4228516 C60.5126953,10.7802702 60.7211893,10.2744159 61.1381836,9.90527344 C61.5551779,9.53613097 62.0439425,9.3515625 62.6044922,9.3515625 C63.1513699,9.3515625 63.6298808,9.53613097 64.0400391,9.90527344 C64.4501974,10.2744159 64.6552734,10.7802702 64.6552734,11.4228516 L64.6552734,27.7265625 C64.6552734,28.3691438 64.4467794,28.8749982 64.0297852,29.2441406 C63.6127909,29.6132831 63.1240262,29.7978516 62.5634766,29.7978516 Z M62.5839844,4.86035156 C61.8183555,4.86035156 61.1962915,4.63818582 60.7177734,4.19384766 C60.2392554,3.7495095 60,3.16504269 60,2.44042969 C60,1.71581669 60.2392554,1.12793194 60.7177734,0.676757812 C61.1962915,0.225583682 61.8251914,0 62.6044922,0 C63.370121,0 63.9853492,0.225583682 64.4501953,0.676757812 C64.9150414,1.12793194 65.1474609,1.71581669 65.1474609,2.44042969 C65.1474609,3.16504269 64.9116235,3.7495095 64.4399414,4.19384766 C63.9682594,4.63818582 63.3496132,4.86035156 62.5839844,4.86035156 Z M76.1191406,30.1259766 C73.9863175,30.1259766 72.2500067,29.6132864 70.9101562,28.5878906 C69.5703058,27.5624949 68.9003906,26.1064547 68.9003906,24.2197266 C68.9003906,23.4130819 68.985839,22.7055694 69.1567383,22.097168 C69.3276376,21.4887665 69.5634751,20.9624046 69.8642578,20.5180664 C70.1650406,20.0737282 70.5957003,19.6977554 71.15625,19.3901367 C71.7167997,19.082518 72.3149382,18.8330088 72.9506836,18.6416016 C73.586429,18.4501944 74.4067333,18.3032232 75.4116211,18.2006836 C76.4165089,18.098144 77.4282176,18.0297853 78.4467773,17.9956055 C79.4653371,17.9614256 80.7128832,17.9443359 82.1894531,17.9443359 L82.1894531,15.9345703 C82.1894531,13.1728378 80.8086076,11.7919922 78.046875,11.7919922 C77.2402303,11.7919922 76.4130902,11.8842764 75.5654297,12.0688477 C74.7177692,12.2534189 74.0786154,12.4277336 73.6479492,12.5917969 C73.217283,12.7558602 72.6464879,12.9882797 71.9355469,13.2890625 C71.7714836,13.3574222 71.6005868,13.3916016 71.4228516,13.3916016 C71.2861321,13.3916016 71.1562506,13.371094 71.0332031,13.3300781 C70.9101556,13.2890623 70.7939459,13.2309574 70.6845703,13.1557617 C70.5751948,13.080566 70.4760747,12.9916997 70.387207,12.8891602 C70.2983394,12.7866206 70.2231448,12.6772467 70.1616211,12.5610352 C70.1000973,12.4448236 70.0522463,12.3251959 70.0180664,12.2021484 C69.9838865,12.0791009 69.9667969,11.9560553 69.9667969,11.8330078 C69.9667969,11.6005848 70.0214838,11.3920908 70.1308594,11.2075195 C70.2402349,11.0229483 70.4111317,10.8691412 70.6435547,10.7460938 C72.7627059,9.59765051 75.2783058,9.0234375 78.1904297,9.0234375 C80.7060673,9.0234375 82.6884693,9.61132225 84.1376953,10.7871094 C85.5869213,11.9628965 86.3115234,13.7949094 86.3115234,16.2832031 L86.3115234,27.8496094 C86.3115234,28.4648468 86.1064474,28.9467756 85.6962891,29.2954102 C85.2861308,29.6440447 84.8076199,29.8183594 84.2607422,29.8183594 C83.9052717,29.8183594 83.5805679,29.7465827 83.2866211,29.6030273 C82.9926743,29.4594719 82.746583,29.2407241 82.5483398,28.9467773 C82.3500967,28.6528306 82.2509766,28.3007833 82.2509766,27.890625 L82.2509766,26.3730469 C81.0341736,28.8750125 78.9902487,30.1259766 76.1191406,30.1259766 Z M76.5292969,27.4189453 C78.0195387,27.4189453 79.3320256,26.8037171 80.4667969,25.5732422 C81.6015682,24.3427673 82.1689453,22.7773533 82.1689453,20.8769531 L82.1689453,20.3027344 C80.8564388,20.3027344 79.7626997,20.319824 78.8876953,20.3540039 C78.0126909,20.3881838 77.2026404,20.4565425 76.4575195,20.559082 C75.7123986,20.6616216 75.1279318,20.7949211 74.7041016,20.9589844 C74.2802713,21.1230477 73.9145523,21.3486314 73.6069336,21.6357422 C73.2993149,21.922853 73.0908209,22.2612285 72.9814453,22.6508789 C72.8720698,23.0405293 72.8173828,23.5087863 72.8173828,24.0556641 C72.8173828,25.2041073 73.1523404,26.0517551 73.8222656,26.5986328 C74.4921908,27.1455105 75.3945256,27.4189453 76.5292969,27.4189453 Z M94.1660156,29.7978516 C93.6054659,29.7978516 93.1269551,29.6269548 92.7304688,29.2851562 C92.3339824,28.9433577 92.1357422,28.458011 92.1357422,27.8291016 L92.1357422,11.2792969 C92.1357422,10.6777314 92.3408183,10.2060564 92.7509766,9.86425781 C93.1611349,9.52245923 93.6464816,9.3515625 94.2070312,9.3515625 C94.753909,9.3515625 95.2358378,9.51220542 95.652832,9.83349609 C96.0698263,10.1547868 96.2783203,10.6025362 96.2783203,11.1767578 L96.2783203,12.8173828 C96.9209017,11.5458921 97.8129826,10.5957063 98.9545898,9.96679688 C100.096197,9.33788748 101.39843,9.0234375 102.861328,9.0234375 C104.570321,9.0234375 106.016107,9.44384345 107.19873,10.284668 C108.381354,11.1254925 109.184568,12.2636647 109.608398,13.6992188 C110.196292,12.1406172 111.115716,10.9716836 112.366699,10.1923828 C113.617682,9.41308204 115.118155,9.0234375 116.868164,9.0234375 C117.920904,9.0234375 118.891597,9.17382662 119.780273,9.47460938 C120.66895,9.77539213 121.458493,10.2333954 122.148926,10.8486328 C122.839359,11.4638703 123.379393,12.2807566 123.769043,13.2993164 C124.158693,14.3178762 124.353516,15.4970636 124.353516,16.8369141 L124.353516,27.8291016 C124.353516,28.458011 124.14844,28.9433577 123.738281,29.2851562 C123.328123,29.6269548 122.83594,29.7978516 122.261719,29.7978516 C121.701169,29.7978516 121.21924,29.6269548 120.815918,29.2851562 C120.412596,28.9433577 120.210938,28.458011 120.210938,27.8291016 L120.210938,16.734375 C120.210938,15.0937418 119.841801,13.8632854 119.103516,13.0429688 C118.365231,12.2226521 117.305671,11.8125 115.924805,11.8125 C114.284171,11.8125 112.937505,12.3832951 111.884766,13.5249023 C110.832026,14.6665096 110.305664,16.2900285 110.305664,18.3955078 L110.305664,27.8085938 C110.305664,28.4375031 110.100588,28.9262678 109.69043,29.2749023 C109.280271,29.6235369 108.788089,29.7978516 108.213867,29.7978516 C107.653318,29.7978516 107.171389,29.6235369 106.768066,29.2749023 C106.364744,28.9262678 106.163086,28.4375031 106.163086,27.8085938 L106.163086,17.0625 C106.163086,15.2851474 105.790531,13.9658246 105.04541,13.1044922 C104.300289,12.2431598 103.244147,11.8125 101.876953,11.8125 C100.181632,11.8125 98.8247121,12.3730413 97.8061523,13.4941406 C96.7875926,14.61524 96.2783203,16.1601464 96.2783203,18.1289062 L96.2783203,27.8291016 C96.2783203,28.458011 96.0698263,28.9433577 95.652832,29.2851562 C95.2358378,29.6269548 94.7402372,29.7978516 94.1660156,29.7978516 Z M132.1875,37.6113281 C131.640622,37.6113281 131.162111,37.4404314 130.751953,37.0986328 C130.341795,36.7568342 130.136719,36.2851593 130.136719,35.6835938 L130.136719,11.3408203 C130.136719,10.7255829 130.341795,10.2436541 130.751953,9.89501953 C131.162111,9.54638498 131.647458,9.37207031 132.208008,9.37207031 C132.864261,9.37207031 133.370115,9.53954911 133.725586,9.87451172 C134.081056,10.2094743 134.258789,10.6914031 134.258789,11.3203125 L134.258789,12.7763672 C135.612311,10.2744016 137.922835,9.0234375 141.19043,9.0234375 C142.612312,9.0234375 143.890619,9.31396194 145.025391,9.89501953 C146.160162,10.4760771 147.086422,11.2622021 147.804199,12.253418 C148.521976,13.2446339 149.072264,14.3725523 149.455078,15.637207 C149.837893,16.9018618 150.029297,18.2519459 150.029297,19.6875 C150.029297,22.7500153 149.208993,25.2553614 147.568359,27.2036133 C145.927726,29.1518652 143.699233,30.1259766 140.882812,30.1259766 C137.792953,30.1259766 135.584968,28.9228636 134.258789,26.5166016 L134.258789,35.6835938 C134.258789,36.2851593 134.053713,36.7568342 133.643555,37.0986328 C133.233396,37.4404314 132.74805,37.6113281 132.1875,37.6113281 Z M140.206055,27.3164062 C141.040043,27.3164062 141.788571,27.1625992 142.45166,26.8549805 C143.114749,26.5473617 143.658201,26.1440455 144.082031,25.6450195 C144.505861,25.1459936 144.857909,24.5581089 145.138184,23.8813477 C145.418458,23.2045865 145.616699,22.5175816 145.73291,21.8203125 C145.849122,21.1230434 145.907227,20.3984413 145.907227,19.6464844 C145.907227,18.7304642 145.814942,17.8452191 145.630371,16.9907227 C145.4458,16.1362262 145.155275,15.309086 144.758789,14.5092773 C144.362303,13.7094687 143.784672,13.063479 143.025879,12.5712891 C142.267086,12.0790991 141.375005,11.8330078 140.349609,11.8330078 C139.214838,11.8330078 138.247563,12.0209942 137.447754,12.3969727 C136.647945,12.7729511 136.022463,13.3164027 135.571289,14.0273438 C135.120115,14.7382848 134.791993,15.5517532 134.586914,16.4677734 C134.381835,17.3837936 134.279297,18.4433534 134.279297,19.6464844 C134.279297,20.4394571 134.344238,21.1982386 134.474121,21.9228516 C134.604005,22.6474646 134.822752,23.3413053 135.130371,24.0043945 C135.43799,24.6674838 135.813963,25.2416968 136.258301,25.7270508 C136.702639,26.2124048 137.26318,26.5986314 137.939941,26.8857422 C138.616703,27.172853 139.372066,27.3164062 140.206055,27.3164062 Z M156.94043,29.7978516 C156.37988,29.7978516 155.901369,29.620119 155.504883,29.2646484 C155.108396,28.9091779 154.910156,28.3964877 154.910156,27.7265625 L154.910156,2.48144531 C154.910156,1.85253592 155.115232,1.35351747 155.525391,0.984375 C155.935549,0.615232529 156.420896,0.430664062 156.981445,0.430664062 C157.541995,0.430664062 158.027342,0.615232529 158.4375,0.984375 C158.847658,1.35351747 159.052734,1.85253592 159.052734,2.48144531 L159.052734,27.7265625 C159.052734,28.3691438 158.840822,28.8749982 158.416992,29.2441406 C157.993162,29.6132831 157.500979,29.7978516 156.94043,29.7978516 Z M170.680664,30.1259766 C168.547841,30.1259766 166.81153,29.6132864 165.47168,28.5878906 C164.131829,27.5624949 163.461914,26.1064547 163.461914,24.2197266 C163.461914,23.4130819 163.547362,22.7055694 163.718262,22.097168 C163.889161,21.4887665 164.124998,20.9624046 164.425781,20.5180664 C164.726564,20.0737282 165.157224,19.6977554 165.717773,19.3901367 C166.278323,19.082518 166.876462,18.8330088 167.512207,18.6416016 C168.147952,18.4501944 168.968257,18.3032232 169.973145,18.2006836 C170.978032,18.098144 171.989741,18.0297853 173.008301,17.9956055 C174.026861,17.9614256 175.274407,17.9443359 176.750977,17.9443359 L176.750977,15.9345703 C176.750977,13.1728378 175.370131,11.7919922 172.608398,11.7919922 C171.801754,11.7919922 170.974614,11.8842764 170.126953,12.0688477 C169.279293,12.2534189 168.640139,12.4277336 168.209473,12.5917969 C167.778806,12.7558602 167.208011,12.9882797 166.49707,13.2890625 C166.333007,13.3574222 166.16211,13.3916016 165.984375,13.3916016 C165.847656,13.3916016 165.717774,13.371094 165.594727,13.3300781 C165.471679,13.2890623 165.355469,13.2309574 165.246094,13.1557617 C165.136718,13.080566 165.037598,12.9916997 164.94873,12.8891602 C164.859863,12.7866206 164.784668,12.6772467 164.723145,12.5610352 C164.661621,12.4448236 164.61377,12.3251959 164.57959,12.2021484 C164.54541,12.0791009 164.52832,11.9560553 164.52832,11.8330078 C164.52832,11.6005848 164.583007,11.3920908 164.692383,11.2075195 C164.801758,11.0229483 164.972655,10.8691412 165.205078,10.7460938 C167.324229,9.59765051 169.839829,9.0234375 172.751953,9.0234375 C175.267591,9.0234375 177.249993,9.61132225 178.699219,10.7871094 C180.148445,11.9628965 180.873047,13.7949094 180.873047,16.2832031 L180.873047,27.8496094 C180.873047,28.4648468 180.667971,28.9467756 180.257812,29.2954102 C179.847654,29.6440447 179.369143,29.8183594 178.822266,29.8183594 C178.466795,29.8183594 178.142091,29.7465827 177.848145,29.6030273 C177.554198,29.4594719 177.308106,29.2407241 177.109863,28.9467773 C176.91162,28.6528306 176.8125,28.3007833 176.8125,27.890625 L176.8125,26.3730469 C175.595697,28.8750125 173.551772,30.1259766 170.680664,30.1259766 Z M171.09082,27.4189453 C172.581062,27.4189453 173.893549,26.8037171 175.02832,25.5732422 C176.163092,24.3427673 176.730469,22.7773533 176.730469,20.8769531 L176.730469,20.3027344 C175.417962,20.3027344 174.324223,20.319824 173.449219,20.3540039 C172.574214,20.3881838 171.764164,20.4565425 171.019043,20.559082 C170.273922,20.6616216 169.689455,20.7949211 169.265625,20.9589844 C168.841795,21.1230477 168.476076,21.3486314 168.168457,21.6357422 C167.860838,21.922853 167.652344,22.2612285 167.542969,22.6508789 C167.433593,23.0405293 167.378906,23.5087863 167.378906,24.0556641 C167.378906,25.2041073 167.713864,26.0517551 168.383789,26.5986328 C169.053714,27.1455105 169.956049,27.4189453 171.09082,27.4189453 Z M192.603516,36.9550781 C192.220701,37.7343789 191.639652,38.1240234 190.860352,38.1240234 C190.340818,38.1240234 189.875979,37.9428729 189.46582,37.5805664 C189.055662,37.2182599 188.850586,36.7841822 188.850586,36.2783203 C188.850586,35.9912095 188.918945,35.704103 189.055664,35.4169922 L192.931641,27.3779297 L185.425781,12.2841797 C185.27539,11.9833969 185.200195,11.6826187 185.200195,11.3818359 C185.200195,10.8623021 185.408689,10.4179706 185.825684,10.0488281 C186.242678,9.67968565 186.717771,9.49511719 187.250977,9.49511719 C187.4834,9.49511719 187.705565,9.5361324 187.91748,9.61816406 C188.129396,9.70019572 188.334472,9.83691311 188.532715,10.0283203 C188.730958,10.2197275 188.898437,10.4521471 189.035156,10.7255859 L195.00293,23.0917969 L201.052734,10.5615234 C201.257814,10.1376932 201.520994,9.82324321 201.842285,9.61816406 C202.163576,9.41308491 202.501951,9.31054688 202.857422,9.31054688 C203.390628,9.31054688 203.858885,9.49169741 204.262207,9.85400391 C204.665529,10.2163104 204.867188,10.657224 204.867188,11.1767578 C204.867188,11.4638686 204.798829,11.7441393 204.662109,12.0175781 L192.603516,36.9550781 Z M217.376953,30.1259766 C214.341782,30.0986327 211.870615,29.1313572 209.963379,27.2241211 C208.056143,25.316885 207.102539,22.7226727 207.102539,19.4414062 C207.102539,18.046868 207.324705,16.7275453 207.769043,15.4833984 C208.213381,14.2392516 208.845699,13.1352587 209.666016,12.1713867 C210.486332,11.2075147 211.528802,10.4418974 212.793457,9.87451172 C214.058112,9.30712607 215.462883,9.0234375 217.007812,9.0234375 C218.580086,9.0234375 219.971185,9.2900364 221.181152,9.82324219 C222.391119,10.356448 223.354977,11.087886 224.072754,12.0175781 C224.790531,12.9472703 225.3374,13.9897403 225.713379,15.1450195 C226.089357,16.3002987 226.291015,17.5615166 226.318359,18.9287109 C226.318359,19.3798851 226.208985,19.749022 225.990234,20.0361328 C225.771483,20.3232436 225.443362,20.4667969 225.005859,20.4667969 L211.265625,20.4667969 C211.320313,22.7363395 211.928705,24.4247992 213.09082,25.5322266 C214.252935,26.639654 215.777334,27.2070311 217.664062,27.234375 C218.785162,27.234375 219.810542,27.025881 220.740234,26.6088867 C221.669927,26.1918924 222.620112,25.6279332 223.59082,24.9169922 C223.72754,24.8212886 223.860839,24.749512 223.990723,24.7016602 C224.120606,24.6538084 224.253906,24.6298828 224.390625,24.6298828 C224.623048,24.6298828 224.838378,24.6948236 225.036621,24.824707 C225.234864,24.9545905 225.392089,25.1289052 225.508301,25.3476562 C225.624512,25.5664073 225.682617,25.7988269 225.682617,26.0449219 C225.682617,26.2773449 225.631348,26.5029286 225.528809,26.7216797 C225.426269,26.9404308 225.265626,27.138671 225.046875,27.3164062 C222.927724,29.1894625 220.371109,30.1259766 217.376953,30.1259766 Z M211.306641,17.9648438 L222.75,17.9648438 C222.626953,16.1874911 222.107426,14.7211972 221.191406,13.565918 C220.275386,12.4106388 218.942392,11.8330078 217.192383,11.8330078 C216.290035,11.8330078 215.46973,12.0073225 214.731445,12.355957 C213.99316,12.7045916 213.388186,13.1762666 212.916504,13.7709961 C212.444822,14.3657256 212.075685,15.0185511 211.809082,15.7294922 C211.542479,16.4404332 211.375,17.185543 211.306641,17.9648438 Z M233.085938,29.7978516 C232.525388,29.7978516 232.046877,29.6303728 231.650391,29.2954102 C231.253904,28.9604475 231.055664,28.4785188 231.055664,27.8496094 L231.055664,11.2792969 C231.055664,10.6777314 231.264158,10.2094743 231.681152,9.87451172 C232.098147,9.53954911 232.586911,9.37207031 233.147461,9.37207031 C233.366212,9.37207031 233.574706,9.39599585 233.772949,9.44384766 C233.971192,9.49169946 234.155761,9.56689402 234.32666,9.66943359 C234.497559,9.77197317 234.647949,9.89160088 234.777832,10.0283203 C234.907715,10.1650397 235.010254,10.3325185 235.085449,10.5307617 C235.160645,10.7290049 235.198242,10.9443348 235.198242,11.1767578 L235.157227,13.6992188 C235.499025,12.427728 236.192866,11.3613324 237.23877,10.5 C238.284673,9.63866757 239.49804,9.20800781 240.878906,9.20800781 C241.371096,9.20800781 241.753905,9.38574041 242.027344,9.74121094 C242.300783,10.0966815 242.4375,10.5205054 242.4375,11.0126953 C242.4375,11.4638694 242.314454,11.853514 242.068359,12.1816406 C241.822264,12.5097673 241.473635,12.6738281 241.022461,12.6738281 C239.204092,12.6738281 237.778814,13.097652 236.746582,13.9453125 C235.71435,14.792973 235.198242,16.0849523 235.198242,17.8212891 L235.198242,27.8496094 C235.198242,28.4648468 234.98633,28.9433577 234.5625,29.2851562 C234.13867,29.6269548 233.646487,29.7978516 233.085938,29.7978516 Z" id="path-1"></path>
    </defs>
    <g id="Page-1" stroke="none" stroke-width="1" fill="none" fill-rule="evenodd">
        <g id="Group-3" transform="translate(2.000000, 2.000000)">
            <g id="music" stroke="#2A3A4A" stroke-linecap="round" stroke-linejoin="round" stroke-width="3">
                <polyline id="Path" points="14 30 14 4 43 0 43 26"></polyline>
                <circle id="Oval" fill="#20A7A1" cx="7" cy="30" r="7"></circle>
                <circle id="Oval" fill="#FA581F" cx="36" cy="25" r="7"></circle>
            </g>
            <g id="iamplayer">
                <use fill="#20A7A1" xlink:href="#path-1"></use>
                <use fill="#2A3A4A" xlink:href="#path-1"></use>
            </g>
        </g>
    </g>
</svg>