<?xml version="1.0" encoding="UTF-8"?>
<svg width="175px" height="32px" viewBox="0 0 175 32" version="1.1" xmlns="http://www.w3.org/2000/svg" xmlns:xlink="http://www.w3.org/1999/xlink">
    <!-- Generator: Sketch 52.2 (67145) - http://www.bohemiancoding.com/sketch -->
    <title>Logo beta</title>
    <desc>Created with Sketch.</desc>
    <defs>
        <path d="M44.5410759,22.2141083 C44.1322679,22.2141083 43.786733,22.0875744 43.5044608,21.8345028 C43.2221887,21.5814312 43.0810547,21.2164295 43.0810547,20.7394869 L43.0810547,9.13231819 C43.0810547,8.67484259 43.2294887,8.31470762 43.5263612,8.05190249 C43.8232336,7.78909735 44.1712019,7.65769676 44.5702763,7.65769676 C44.9596173,7.65769676 45.3002855,7.78909735 45.5922912,8.05190249 C45.8842969,8.31470762 46.0302976,8.67484259 46.0302976,9.13231819 L46.0302976,20.7394869 C46.0302976,21.1969625 45.8818635,21.5570975 45.5849911,21.8199026 C45.2881186,22.0827077 44.9401504,22.2141083 44.5410759,22.2141083 Z M44.5556761,4.46025029 C44.0105988,4.46025029 43.5677301,4.30208291 43.2270568,3.98574339 C42.8863835,3.66940388 42.7160494,3.25330199 42.7160494,2.73742525 C42.7160494,2.22154851 42.8863835,1.80301328 43.2270568,1.481807 C43.5677301,1.16060073 44.0154655,1 44.5702763,1 C45.1153536,1 45.5533556,1.16060073 45.8842954,1.481807 C46.2152352,1.80301328 46.3807026,2.22154851 46.3807026,2.73742525 C46.3807026,3.25330199 46.2128019,3.66940388 45.8769953,3.98574339 C45.5411888,4.30208291 45.1007534,4.46025029 44.5556761,4.46025029 Z M54.1918162,22.4477117 C52.6733865,22.4477117 51.4372476,22.0827101 50.4833623,21.3526958 C49.529477,20.6226815 49.0525415,19.5860768 49.0525415,18.2428506 C49.0525415,17.6685727 49.1133751,17.1648704 49.2350441,16.7317286 C49.3567132,16.2985868 49.5246139,15.9238518 49.7387514,15.6075123 C49.952889,15.2911728 50.2594904,15.0235049 50.6585648,14.8045006 C51.0576393,14.5854963 51.4834745,14.4078622 51.9360834,14.2715929 C52.3886922,14.1353236 52.9726949,14.0306897 53.6881088,13.9576883 C54.4035228,13.8846869 55.1237928,13.83602 55.8489402,13.8116862 C56.5740877,13.7873524 57.4622584,13.7751857 58.513479,13.7751857 L58.513479,12.3443649 C58.513479,10.3781931 57.5304079,9.39512201 55.5642361,9.39512201 C54.9899582,9.39512201 54.4010889,9.46082231 53.7976104,9.59222487 C53.194132,9.72362744 52.7390966,9.847728 52.4324906,9.96453029 C52.1258846,10.0813326 51.7195161,10.2468 51.2133729,10.4609375 C51.0965706,10.5096051 50.9749034,10.5339386 50.8483676,10.5339386 C50.7510323,10.5339386 50.6585653,10.5193385 50.5709635,10.4901379 C50.4833618,10.4609374 50.4006281,10.4195705 50.3227599,10.3660361 C50.2448917,10.3125017 50.1743248,10.2492348 50.1110569,10.1762334 C50.047789,10.1032319 49.9942554,10.0253649 49.9504545,9.94262997 C49.9066537,9.85989502 49.8725868,9.77472797 49.848253,9.68712625 C49.8239192,9.59952454 49.8117525,9.51192415 49.8117525,9.42432243 C49.8117525,9.25885254 49.850686,9.11041853 49.9285542,8.97901596 C50.0064224,8.8476134 50.1280896,8.7381129 50.2935595,8.65051119 C51.8022556,7.83289522 53.5931971,7.42409336 55.6664376,7.42409336 C57.4574059,7.42409336 58.8687456,7.84262859 59.9004991,8.67971161 C60.9322526,9.51679463 61.4481216,10.8210672 61.4481216,12.5925685 L61.4481216,20.8270882 C61.4481216,21.2650967 61.302121,21.6081983 61.0101153,21.8564031 C60.7181096,22.104608 60.3774413,22.2287085 59.9881004,22.2287085 C59.7350288,22.2287085 59.5038611,22.1776083 59.2945903,22.0754063 C59.0853196,21.9732043 58.9101188,21.8174703 58.7689827,21.6081995 C58.6278466,21.3989288 58.5572796,21.1482943 58.5572796,20.8562886 L58.5572796,19.7758729 C57.690996,21.5571077 56.2358561,22.4477117 54.1918162,22.4477117 Z M54.4838204,20.5204837 C55.5447745,20.5204837 56.4791787,20.0824817 57.2870611,19.2064646 C58.0949436,18.3304475 58.4988788,17.2159758 58.4988788,15.863016 L58.4988788,15.4542101 C57.5644605,15.4542101 56.7857903,15.4663768 56.1628448,15.4907106 C55.5398993,15.5150444 54.9631967,15.5637113 54.4327197,15.6367127 C53.9022426,15.7097141 53.4861408,15.8046146 53.1844015,15.9214169 C52.8826623,16.0382191 52.6222944,16.1988199 52.4032902,16.4032239 C52.1842859,16.6076279 52.0358519,16.8485289 51.9579837,17.1259344 C51.8801155,17.4033398 51.841182,17.736708 51.841182,18.1260489 C51.841182,18.9436649 52.0796498,19.5471343 52.5565924,19.9364752 C53.033535,20.3258162 53.675938,20.5204837 54.4838204,20.5204837 Z M67.0400029,22.2141083 C66.6409284,22.2141083 66.3002602,22.0924411 66.017988,21.849103 C65.7357159,21.6057649 65.5945819,21.26023 65.5945819,20.8124879 L65.5945819,9.03011671 C65.5945819,8.60184167 65.7405825,8.26604015 66.0325883,8.02270206 C66.324594,7.77936398 66.6701289,7.65769676 67.0692033,7.65769676 C67.4585443,7.65769676 67.8016458,7.77206394 68.0985183,8.00080175 C68.3953907,8.22953955 68.5438247,8.54830766 68.5438247,8.95711564 L68.5438247,10.1251326 C69.0013004,9.21991494 69.6364032,8.5434452 70.4491524,8.09570312 C71.2619016,7.64796105 72.1890059,7.42409336 73.2304929,7.42409336 C74.4471833,7.42409336 75.476488,7.72339472 76.3184377,8.32200641 C77.1603875,8.92061811 77.7322234,9.73092178 78.0339627,10.7529417 C78.4525042,9.64332007 79.1070738,8.8111163 79.9976912,8.25630546 C80.8883086,7.70149462 81.9565468,7.42409336 83.2024378,7.42409336 C83.9519191,7.42409336 84.6429889,7.53116052 85.2756679,7.74529803 C85.9083469,7.95943555 86.4704495,8.28550369 86.9619924,8.72351225 C87.4535354,9.16152081 87.8380038,9.74309011 88.1154092,10.4682376 C88.3928146,11.1933851 88.5315152,12.0328889 88.5315152,12.9867742 L88.5315152,20.8124879 C88.5315152,21.26023 88.3855146,21.6057649 88.0935089,21.849103 C87.8015032,22.0924411 87.4511016,22.2141083 87.0422936,22.2141083 C86.6432191,22.2141083 86.3001176,22.0924411 86.0129786,21.849103 C85.7258397,21.6057649 85.5822724,21.26023 85.5822724,20.8124879 L85.5822724,12.9137731 C85.5822724,11.7457503 85.3194712,10.8697464 84.7938609,10.285735 C84.2682507,9.70172355 83.5139139,9.40972222 82.530828,9.40972222 C81.3628052,9.40972222 80.4040675,9.81609073 79.6545862,10.6288399 C78.9051049,11.4415891 78.5303699,12.5974277 78.5303699,14.0963903 L78.5303699,20.7978877 C78.5303699,21.2456298 78.3843692,21.5935981 78.0923635,21.8418029 C77.8003578,22.0900078 77.4499562,22.2141083 77.0411482,22.2141083 C76.6420738,22.2141083 76.2989722,22.0900078 76.0118333,21.8418029 C75.7246943,21.5935981 75.581127,21.2456298 75.581127,20.7978877 L75.581127,13.1473765 C75.581127,11.8820185 75.3158925,10.9427476 74.7854155,10.3295356 C74.2549384,9.71632361 73.503035,9.40972222 72.5296827,9.40972222 C71.3227258,9.40972222 70.3566881,9.8087907 69.6315406,10.6069396 C68.9063931,11.4050885 68.5438247,12.5049602 68.5438247,13.9065876 L68.5438247,20.8124879 C68.5438247,21.26023 68.3953907,21.6057649 68.0985183,21.849103 C67.8016458,22.0924411 67.4488109,22.2141083 67.0400029,22.2141083 Z M94.1087963,27.7767892 C93.7194554,27.7767892 93.3787871,27.6551219 93.0867814,27.4117839 C92.7947757,27.1684458 92.6487751,26.8326442 92.6487751,26.4043692 L92.6487751,9.07391734 C92.6487751,8.63590879 92.7947757,8.29280723 93.0867814,8.04460238 C93.3787871,7.79639753 93.724322,7.67229697 94.1233965,7.67229697 C94.5906056,7.67229697 94.9507406,7.79153085 95.2038122,8.03000217 C95.4568838,8.26847349 95.5834177,8.61157505 95.5834177,9.05931713 L95.5834177,10.0959322 C96.5470366,8.3146974 98.1919773,7.42409336 100.518289,7.42409336 C101.530576,7.42409336 102.440647,7.63092764 103.248529,8.04460238 C104.056412,8.45827713 104.715848,9.01794633 105.226858,9.72362678 C105.737868,10.4293072 106.129636,11.2323109 106.402175,12.1326618 C106.674714,13.0330127 106.810981,13.9941837 106.810981,15.0162037 C106.810981,17.196513 106.226978,18.9801544 105.058955,20.3671815 C103.890933,21.7542086 102.304392,22.4477117 100.299286,22.4477117 C98.09951,22.4477117 96.5275695,21.5911745 95.5834177,19.8780744 L95.5834177,26.4043692 C95.5834177,26.8326442 95.4374171,27.1684458 95.1454114,27.4117839 C94.8534057,27.6551219 94.5078708,27.7767892 94.1087963,27.7767892 Z M99.8174793,20.4474826 C100.411224,20.4474826 100.944127,20.3379821 101.416202,20.1189779 C101.888278,19.8999736 102.27518,19.612839 102.576919,19.2575653 C102.878659,18.9022917 103.129293,18.4837565 103.32883,18.0019471 C103.528368,17.5201377 103.669501,17.0310355 103.752236,16.5346258 C103.834971,16.0382161 103.876338,15.5223471 103.876338,14.9870033 C103.876338,14.3348572 103.810638,13.704621 103.679235,13.0962758 C103.547833,12.4879306 103.340999,11.8990612 103.058726,11.3296501 C102.776454,10.760239 102.365219,10.3003369 101.825008,9.94993007 C101.284798,9.59952323 100.649695,9.42432243 99.9196807,9.42432243 C99.1117983,9.42432243 98.4231618,9.55815637 97.8537507,9.82582827 C97.2843396,10.0935002 96.8390376,10.4804019 96.5178313,10.9865451 C96.196625,11.4926884 95.963024,12.0718243 95.8170211,12.7239704 C95.6710183,13.3761165 95.5980179,14.1304532 95.5980179,14.9870033 C95.5980179,15.5515476 95.6442515,16.0917501 95.73672,16.6076268 C95.8291884,17.1235036 95.9849225,17.6174725 96.2039267,18.0895484 C96.422931,18.5616243 96.6905989,18.9704261 97.0069384,19.3159662 C97.3232779,19.6615063 97.7223464,19.9364742 98.2041558,20.1408782 C98.6859652,20.3452822 99.2237343,20.4474826 99.8174793,20.4474826 Z M111.731252,22.2141083 C111.332178,22.2141083 110.99151,22.0875744 110.709238,21.8345028 C110.426965,21.5814312 110.285831,21.2164295 110.285831,20.7394869 L110.285831,2.76662568 C110.285831,2.3188836 110.431832,1.96361532 110.723838,1.70081019 C111.015843,1.43800505 111.361378,1.30660446 111.760453,1.30660446 C112.159527,1.30660446 112.505062,1.43800505 112.797068,1.70081019 C113.089074,1.96361532 113.235074,2.3188836 113.235074,2.76662568 L113.235074,20.7394869 C113.235074,21.1969625 113.084207,21.5570975 112.782468,21.8199026 C112.480728,22.0827077 112.130327,22.2141083 111.731252,22.2141083 Z M121.513395,22.4477117 C119.994965,22.4477117 118.758826,22.0827101 117.804941,21.3526958 C116.851055,20.6226815 116.37412,19.5860768 116.37412,18.2428506 C116.37412,17.6685727 116.434953,17.1648704 116.556623,16.7317286 C116.678292,16.2985868 116.846192,15.9238518 117.06033,15.6075123 C117.274467,15.2911728 117.581069,15.0235049 117.980143,14.8045006 C118.379218,14.5854963 118.805053,14.4078622 119.257662,14.2715929 C119.710271,14.1353236 120.294273,14.0306897 121.009687,13.9576883 C121.725101,13.8846869 122.445371,13.83602 123.170519,13.8116862 C123.895666,13.7873524 124.783837,13.7751857 125.835057,13.7751857 L125.835057,12.3443649 C125.835057,10.3781931 124.851986,9.39512201 122.885815,9.39512201 C122.311537,9.39512201 121.722667,9.46082231 121.119189,9.59222487 C120.51571,9.72362744 120.060675,9.847728 119.754069,9.96453029 C119.447463,10.0813326 119.041095,10.2468 118.534951,10.4609375 C118.418149,10.5096051 118.296482,10.5339386 118.169946,10.5339386 C118.072611,10.5339386 117.980144,10.5193385 117.892542,10.4901379 C117.80494,10.4609374 117.722207,10.4195705 117.644338,10.3660361 C117.56647,10.3125017 117.495903,10.2492348 117.432635,10.1762334 C117.369367,10.1032319 117.315834,10.0253649 117.272033,9.94262997 C117.228232,9.85989502 117.194165,9.77472797 117.169831,9.68712625 C117.145498,9.59952454 117.133331,9.51192415 117.133331,9.42432243 C117.133331,9.25885254 117.172264,9.11041853 117.250133,8.97901596 C117.328001,8.8476134 117.449668,8.7381129 117.615138,8.65051119 C119.123834,7.83289522 120.914776,7.42409336 122.988016,7.42409336 C124.778984,7.42409336 126.190324,7.84262859 127.222078,8.67971161 C128.253831,9.51679463 128.7697,10.8210672 128.7697,12.5925685 L128.7697,20.8270882 C128.7697,21.2650967 128.623699,21.6081983 128.331694,21.8564031 C128.039688,22.104608 127.69902,22.2287085 127.309679,22.2287085 C127.056607,22.2287085 126.825439,22.1776083 126.616169,22.0754063 C126.406898,21.9732043 126.231697,21.8174703 126.090561,21.6081995 C125.949425,21.3989288 125.878858,21.1482943 125.878858,20.8562886 L125.878858,19.7758729 C125.012574,21.5571077 123.557435,22.4477117 121.513395,22.4477117 Z M121.805399,20.5204837 C122.866353,20.5204837 123.800757,20.0824817 124.60864,19.2064646 C125.416522,18.3304475 125.820457,17.2159758 125.820457,15.863016 L125.820457,15.4542101 C124.886039,15.4542101 124.107369,15.4663768 123.484423,15.4907106 C122.861478,15.5150444 122.284775,15.5637113 121.754298,15.6367127 C121.223821,15.7097141 120.807719,15.8046146 120.50598,15.9214169 C120.204241,16.0382191 119.943873,16.1988199 119.724869,16.4032239 C119.505864,16.6076279 119.35743,16.8485289 119.279562,17.1259344 C119.201694,17.4033398 119.16276,17.736708 119.16276,18.1260489 C119.16276,18.9436649 119.401228,19.5471343 119.878171,19.9364752 C120.355113,20.3258162 120.997516,20.5204837 121.805399,20.5204837 Z M137.121021,27.3095824 C136.848483,27.8643932 136.434814,28.1417945 135.880003,28.1417945 C135.510129,28.1417945 135.179195,28.0128272 134.887189,27.7548888 C134.595183,27.4969505 134.449183,27.1879157 134.449183,26.8277754 C134.449183,26.6233714 134.497849,26.4189704 134.595185,26.2145665 L137.354625,20.4912833 L132.010947,9.7455271 C131.903878,9.53138959 131.850345,9.31725528 131.850345,9.10311777 C131.850345,8.73324387 131.998779,8.41690911 132.295651,8.15410397 C132.592524,7.89129884 132.930759,7.75989824 133.310366,7.75989824 C133.475836,7.75989824 133.634003,7.78909838 133.784873,7.84749952 C133.935743,7.90590066 134.081743,8.00323443 134.222879,8.13950376 C134.364015,8.27577309 134.483249,8.44124051 134.580584,8.63591098 L138.829246,17.4398389 L143.136309,8.51910928 C143.282312,8.21737005 143.469679,7.99350237 143.698417,7.84749952 C143.927155,7.70149667 144.168056,7.62849633 144.421128,7.62849633 C144.800735,7.62849633 145.134103,7.75746359 145.421242,8.01540196 C145.708381,8.27334033 145.851948,8.58724175 145.851948,8.95711564 C145.851948,9.16151964 145.803281,9.36105387 145.705946,9.55572434 L137.121021,27.3095824 Z M154.758078,22.4477117 C152.597236,22.4282447 150.837928,21.7396082 149.480101,20.3817817 C148.122275,19.0239552 147.443371,17.1770468 147.443371,14.8410012 C147.443371,13.8481818 147.601539,12.9089108 147.917878,12.0231602 C148.234218,11.1374096 148.684387,10.3514393 149.268398,9.66522594 C149.852409,8.97901253 150.594579,8.43394339 151.49493,8.03000217 C152.395281,7.62606095 153.395386,7.42409336 154.495274,7.42409336 C155.614629,7.42409336 156.605,7.61389422 157.466417,7.99350164 C158.327834,8.37310905 159.014037,8.89384475 159.525047,9.55572434 C160.036057,10.2176039 160.425392,10.959774 160.693064,11.7822567 C160.960736,12.6047394 161.104303,13.5026435 161.12377,14.4759959 C161.12377,14.7972021 161.045903,15.0600033 160.890167,15.2644073 C160.73443,15.4688113 160.500829,15.5710118 160.189357,15.5710118 L150.407215,15.5710118 C150.446149,17.1867767 150.879284,18.3888488 151.706633,19.1772642 C152.533983,19.9656796 153.619254,20.3696147 154.962481,20.3890818 C155.76063,20.3890818 156.490633,20.2406478 157.152513,19.9437753 C157.814392,19.6469029 158.490862,19.245401 159.181942,18.7392578 C159.279277,18.6711231 159.374178,18.6200229 159.466646,18.5859556 C159.559115,18.5518883 159.654015,18.5348548 159.75135,18.5348548 C159.91682,18.5348548 160.070121,18.5810884 160.211257,18.6735569 C160.352393,18.7660253 160.464327,18.8901259 160.547062,19.0458623 C160.629797,19.2015986 160.671164,19.3670661 160.671164,19.5422695 C160.671164,19.7077394 160.634664,19.8683401 160.561662,20.0240765 C160.488661,20.1798129 160.374293,20.3209468 160.218557,20.4474826 C158.709861,21.7809754 156.889719,22.4477117 154.758078,22.4477117 Z M150.436415,13.7897859 L158.583333,13.7897859 C158.495732,12.5244278 158.125863,11.4805231 157.473717,10.6580404 C156.821571,9.83555763 155.872567,9.42432243 154.626676,9.42432243 C153.984263,9.42432243 153.400261,9.548423 152.87465,9.79662785 C152.34904,10.0448327 151.918338,10.3806342 151.582532,10.8040425 C151.246725,11.2274508 150.983924,11.6922195 150.79412,12.1983628 C150.604316,12.704506 150.485083,13.234975 150.436415,13.7897859 Z M165.94184,22.2141083 C165.542766,22.2141083 165.202098,22.0948744 164.919825,21.8564031 C164.637553,21.6179318 164.496419,21.2748302 164.496419,20.8270882 L164.496419,9.03011671 C164.496419,8.60184167 164.644853,8.26847349 164.941726,8.03000217 C165.238598,7.79153085 165.586566,7.67229697 165.985641,7.67229697 C166.141377,7.67229697 166.289811,7.68933038 166.430947,7.72339771 C166.572083,7.75746505 166.703484,7.81099862 166.825153,7.88400005 C166.946822,7.95700147 167.053889,8.04216853 167.146358,8.13950376 C167.238826,8.236839 167.311827,8.35607287 167.365361,8.49720896 C167.418895,8.63834505 167.445662,8.79164575 167.445662,8.95711564 L167.416462,10.7529417 C167.6598,9.84772406 168.153769,9.08852062 168.898383,8.47530864 C169.642998,7.86209666 170.506835,7.55549527 171.489921,7.55549527 C171.840328,7.55549527 172.112862,7.68202918 172.307533,7.93510079 C172.502203,8.1881724 172.599537,8.4899071 172.599537,8.84031395 C172.599537,9.16152022 172.511937,9.43892148 172.336733,9.67252604 C172.16153,9.9061306 171.913329,10.0229311 171.592122,10.0229311 C170.297564,10.0229311 169.282859,10.3246658 168.547978,10.9281443 C167.813097,11.5316227 167.445662,12.4514269 167.445662,13.6875844 L167.445662,20.8270882 C167.445662,21.2650967 167.294795,21.6057649 166.993056,21.849103 C166.691316,22.0924411 166.340915,22.2141083 165.94184,22.2141083 Z" id="path-1"></path>
    </defs>
    <g id="Page-1" stroke="none" stroke-width="1" fill="none" fill-rule="evenodd">
        <g id="Logo-beta" transform="translate(2.000000, 0.000000)">
            <g id="Group-3" transform="translate(0.000000, 3.000000)">
                <g id="music" stroke="#2A3A4A" stroke-linecap="round" stroke-linejoin="round" stroke-width="3">
                    <polyline id="Path" points="9.96707819 22.3580247 9.96707819 2.98106996 30.6131687 -8.17124146e-14 30.6131687 19.3769547"></polyline>
                    <circle id="Oval" fill="#20A7A1" cx="4.98353909" cy="22.3580247" r="4.98353909"></circle>
                    <circle id="Oval" fill="#FA581F" cx="25.6296296" cy="18.7983539" r="4.98353909"></circle>
                </g>
                <g id="iamplayer">
                    <use fill="#20A7A1" xlink:href="#path-1"></use>
                    <use fill="#2A3A4A" xlink:href="#path-1"></use>
                </g>
            </g>
            <g id="beta" transform="translate(151.000000, 0.000000)">
                <rect id="Rectangle-2" fill="#20A7A1" x="0" y="0" width="22" height="8" rx="4"></rect>
                <path d="M5.8537623,6 C5.56341253,6 5.30222575,5.93882794 5.0701941,5.81648199 C4.83816245,5.69413605 4.66383112,5.51408244 4.54719489,5.27631579 L4.54719489,5.68836565 C4.54719489,5.75069283 4.52548103,5.80378556 4.48205265,5.84764543 C4.43862426,5.8915053 4.3672787,5.9134349 4.26801383,5.9134349 C4.19356517,5.9134349 4.13028476,5.89381368 4.0781707,5.85457064 C4.02605664,5.8153276 4,5.75992649 4,5.68836565 L4,1.23545706 C4,1.16158781 4.02729743,1.10387832 4.08189311,1.06232687 C4.1364888,1.02077542 4.1997692,1 4.27173624,1 C4.3461849,1 4.4107061,1.02077542 4.46530178,1.06232687 C4.51989746,1.10387832 4.54719489,1.16158781 4.54719489,1.23545706 L4.54719489,3.13642659 C4.64894139,2.91020201 4.81210559,2.73418807 5.03669237,2.6083795 C5.26127915,2.48257093 5.51378039,2.41966759 5.79420367,2.41966759 C6.05725559,2.41966759 6.29486733,2.46814356 6.507046,2.56509695 C6.71922467,2.66205035 6.8929356,2.79247379 7.02818399,2.95637119 C7.16343239,3.12026859 7.26703855,3.30782443 7.33900558,3.51904432 C7.41097262,3.73026421 7.4469556,3.95475412 7.4469556,4.19252078 C7.4469556,4.43721267 7.414695,4.66631934 7.35017283,4.87984765 C7.28565066,5.09337595 7.18948925,5.28497145 7.06168572,5.45463989 C6.93388219,5.62430833 6.76637523,5.75761724 6.5591598,5.85457064 C6.35194437,5.95152403 6.11681422,6 5.8537623,6 Z M5.79792608,5.65027701 C5.96171313,5.64796859 6.10874702,5.61680547 6.23903217,5.5567867 C6.36931732,5.49676794 6.47478467,5.42001432 6.55543738,5.32652355 C6.6360901,5.23303277 6.70309288,5.12223056 6.75644775,4.99411357 C6.80980262,4.86599659 6.84702639,4.73845862 6.86812018,4.61149584 C6.88921397,4.48453307 6.8997607,4.35295544 6.8997607,4.216759 C6.8997607,4.03901111 6.87928763,3.86876813 6.83834087,3.70602493 C6.79739411,3.54328173 6.7341137,3.3897745 6.64849774,3.24549861 C6.56288178,3.10122273 6.44190453,2.98580376 6.28556235,2.89923823 C6.12922017,2.8126727 5.94806449,2.76939058 5.74208987,2.76939058 C5.5758212,2.76939058 5.42568533,2.79651404 5.29167775,2.85076177 C5.15767016,2.9050095 5.04537846,2.97714636 4.95479926,3.06717452 C4.86422006,3.15720267 4.78791133,3.26396522 4.72587078,3.38746537 C4.66383023,3.51096553 4.61916171,3.63965769 4.59186387,3.77354571 C4.56456602,3.90743373 4.55091731,4.04709069 4.55091731,4.19252078 C4.55091731,4.35410976 4.56332523,4.50357734 4.58814145,4.64092798 C4.61295767,4.77827862 4.65514461,4.91043334 4.71470354,5.03739612 C4.77426246,5.1643589 4.85057119,5.27169855 4.94363201,5.35941828 C5.03669283,5.44713802 5.1558089,5.51754359 5.30098378,5.57063712 C5.44615866,5.62373064 5.61180444,5.65027701 5.79792608,5.65027701 Z M9.92236107,6 L9.91491625,6 C9.40866538,6 8.98493479,5.83783634 8.64371178,5.51350416 C8.30248877,5.18917197 8.13187982,4.7580821 8.13187982,4.22022161 C8.13187982,3.89473521 8.2001234,3.59753135 8.3366126,3.32860111 C8.47310181,3.05967086 8.67783254,2.8409519 8.95081095,2.67243767 C9.22378936,2.50392344 9.5414322,2.41966759 9.903749,2.41966759 C10.1395031,2.41966759 10.3516786,2.44967652 10.5402818,2.50969529 C10.7288851,2.56971406 10.8846045,2.65108444 11.0074448,2.75380886 C11.1302851,2.85653329 11.2338913,2.98118579 11.3182664,3.12777008 C11.4026416,3.27435438 11.4640608,3.42786162 11.5025259,3.5882964 C11.5409911,3.74873118 11.5627049,3.92243674 11.5676682,4.10941828 C11.5676682,4.16251181 11.5471951,4.20637102 11.5062483,4.24099723 C11.4653016,4.27562344 11.4063639,4.29293629 11.3294337,4.29293629 L8.67907471,4.29293629 C8.67659309,4.71768449 8.79694995,5.04547438 9.0401489,5.27631579 C9.28334784,5.5071572 9.58610118,5.62603875 9.94841797,5.63296399 C10.204025,5.63296399 10.4236453,5.59372154 10.6072853,5.51523546 C10.7909253,5.43674938 10.9745626,5.32825554 11.1582026,5.18975069 C11.2028718,5.15512448 11.2500219,5.13781163 11.2996543,5.13781163 C11.3468052,5.13781163 11.3871309,5.15397029 11.4206328,5.18628809 C11.4541347,5.21860589 11.4708854,5.25784834 11.4708854,5.30401662 C11.4708854,5.3663438 11.4411064,5.42405329 11.3815475,5.47714681 C11.2078339,5.63181056 11.007446,5.75761724 10.7803776,5.85457064 C10.5533092,5.95152403 10.2673065,6 9.92236107,6 Z M8.69768679,3.97091413 L11.0837543,3.97091413 C11.0614197,3.61310994 10.9565728,3.32340831 10.7692103,3.10180055 C10.5818479,2.8801928 10.3082532,2.76939058 9.94841797,2.76939058 C9.57617469,2.76939058 9.28148651,2.88596375 9.06434459,3.11911357 C8.84720267,3.3522634 8.72498463,3.63619408 8.69768679,3.97091413 Z M13.7341133,5.99307479 C13.1608586,5.99307479 12.8742356,5.63873854 12.8742356,4.9300554 L12.8742356,2.8732687 L12.3828769,2.8732687 C12.2389428,2.8732687 12.1669769,2.81786759 12.1669769,2.70706371 C12.1669769,2.59395142 12.2389428,2.53739612 12.3828769,2.53739612 L12.8742356,2.53739612 L12.9375166,1.51246537 C12.9399982,1.46168026 12.9703977,1.4126272 13.0287158,1.36530471 C13.0870339,1.31798222 13.1422491,1.29432133 13.1943632,1.29432133 C13.2539221,1.29432133 13.3060354,1.31336546 13.3507046,1.35145429 C13.3953738,1.38954313 13.4177081,1.44205876 13.4177081,1.50900277 L13.4177081,2.53739612 L14.1324116,2.53739612 C14.2713824,2.53739612 14.3408668,2.59510561 14.3408668,2.71052632 C14.3408668,2.81902178 14.2713824,2.8732687 14.1324116,2.8732687 L13.4177081,2.8732687 L13.4177081,4.88850416 C13.4177081,5.15397178 13.4586542,5.33748795 13.5405477,5.43905817 C13.6224412,5.54062839 13.7490021,5.59141274 13.920234,5.59141274 L13.9537357,5.59141274 L14.1882478,5.58102493 L14.199415,5.58102493 C14.2713821,5.58102493 14.3278381,5.60122325 14.3687849,5.6416205 C14.4097317,5.68201775 14.4302047,5.72876243 14.4302047,5.78185596 C14.4302047,5.86957569 14.3904994,5.92728518 14.3110875,5.95498615 C14.2316756,5.98268712 14.1150411,5.9965374 13.9611805,5.9965374 C13.9363643,5.9965374 13.8991405,5.9959603 13.8495081,5.99480609 C13.7998757,5.99365189 13.7614111,5.99307479 13.7341133,5.99307479 Z M16.2504653,6 C15.8534058,6 15.5345222,5.91401286 15.2938048,5.74203601 C15.0530875,5.57005916 14.9327307,5.32363965 14.9327307,5.00277008 C14.9327307,4.85503158 14.9501017,4.7286478 14.9848445,4.62361496 C15.0195872,4.51858212 15.0791452,4.42740113 15.1635203,4.35006925 C15.2478955,4.27273738 15.3508812,4.20983404 15.4724807,4.16135734 C15.5940802,4.11288064 15.7547628,4.07363819 15.9545334,4.04362881 C16.1543039,4.01361943 16.3714426,3.9934211 16.6059559,3.98303324 C16.8404691,3.97264538 17.1264718,3.96745152 17.4639723,3.96745152 L17.4639723,3.53116343 C17.4639723,3.27262105 17.3845616,3.08102555 17.2257378,2.95637119 C17.066914,2.83171683 16.8497754,2.76939058 16.5743153,2.76939058 C16.3410429,2.76939058 16.1394141,2.79189728 15.969423,2.83691136 C15.7994319,2.88192543 15.6139335,2.94944553 15.4129221,3.03947368 C15.3831426,3.05332417 15.3558452,3.06024931 15.331029,3.06024931 C15.2789149,3.06024931 15.2323852,3.03947389 15.1914384,2.99792244 C15.1504917,2.95637098 15.1300186,2.91135758 15.1300186,2.86288089 C15.1300186,2.80978736 15.1535937,2.76939072 15.2007445,2.74168975 C15.5705061,2.52700724 16.0320809,2.41966759 16.5854826,2.41966759 C17.0321745,2.41966759 17.3795964,2.51488824 17.6277586,2.70533241 C17.8759208,2.89577658 18,3.18720949 18,3.57963989 L18,5.70914127 C18,5.7783937 17.9714618,5.83321771 17.9143845,5.87361496 C17.8573072,5.91401221 17.7903044,5.93421053 17.7133741,5.93421053 C17.6438887,5.93421053 17.5843307,5.91574349 17.5346982,5.87880886 C17.4850658,5.84187424 17.4602499,5.78878151 17.4602499,5.71952909 L17.4602499,5.25900277 C17.2096061,5.75300339 16.8063486,6 16.2504653,6 Z M16.3174688,5.65720222 C16.6251899,5.65720222 16.893201,5.53774358 17.1215102,5.29882271 C17.3498195,5.05990185 17.4639723,4.75461866 17.4639723,4.38296399 L17.4639723,4.26869806 C16.9031258,4.26869806 16.4843584,4.28831929 16.2076575,4.32756233 C15.9309567,4.36680537 15.7361523,4.43547966 15.6232385,4.53358726 C15.5103247,4.63169486 15.4538687,4.78116243 15.4538687,4.98199446 C15.4538687,5.43213521 15.7417325,5.65720222 16.3174688,5.65720222 Z" fill="#F7F8FA"></path>
            </g>
        </g>
    </g>
</svg>